# xmcd
#
# Track frame offsets:
#	150
#	18170
#	34811
#	55177
#	69592
#	84466
#	100651
#	118712
#	133570
#	150904
#	166973
#	180290
#
# Disc length: 2615 seconds
#
# Revision: 0
# Processed by: cddbd v1.5.2PL0 Copyright (c) Steve Scherf et al.
# Submitted via: EasyCDDAExtractor 9.1.1.2
#
DISCID=870a350c
DTITLE=Little Rainbow - One Year Later
DYEAR=2007
DGENRE=Country
TTITLE0=Gone Country
TTITLE1=Mexican Wind
TTITLE2=I'm Gonna Getcha
TTITLE3=Mercury Blues
TTITLE4=Independence Day
TTITLE5=Little Moments
TTITLE6=Piece Of My Heart
TTITLE7=Some Beach
TTITLE8=Blue Bayou
TTITLE9=Fishing In The Dark
TTITLE10=No One Needs To Know
TTITLE11=You Light Up My Life
EXTD=
EXTT0=
EXTT1=
EXTT2=
EXTT3=
EXTT4=
EXTT5=
EXTT6=
EXTT7=
EXTT8=
EXTT9=
EXTT10=
EXTT11=
PLAYORDER=
